<svg width="115" height="19" viewBox="0 0 115 19" fill="none" xmlns="http://www.w3.org/2000/svg">
<path d="M20.9886 15L17.3295 10.1705H16.6932V15H13.8807V3.36364H16.6932V7.88068H17.142L20.7443 3.36364H24.2614L19.7784 8.85795L24.4943 15H20.9886ZM24.7213 3.36364H27.5281V10.0682H27.6247L32.2043 3.36364H34.6247V15H31.8122V8.28409H31.7384L27.102 15H24.7213V3.36364ZM35.5932 15V3.36364H38.4057V8.03409H42.9909V3.36364H45.7977V15H42.9909V10.3239H38.4057V15H35.5932ZM57.7449 9.18182C57.7449 10.4621 57.4987 11.5473 57.0062 12.4375C56.5138 13.3277 55.8472 14.0038 55.0062 14.4659C54.1691 14.928 53.2297 15.1591 52.1881 15.1591C51.1426 15.1591 50.2013 14.9261 49.3642 14.4602C48.5271 13.9943 47.8623 13.3182 47.3699 12.4318C46.8812 11.5417 46.6369 10.4583 46.6369 9.18182C46.6369 7.90152 46.8812 6.81629 47.3699 5.92614C47.8623 5.03598 48.5271 4.35985 49.3642 3.89773C50.2013 3.43561 51.1426 3.20455 52.1881 3.20455C53.2297 3.20455 54.1691 3.43561 55.0062 3.89773C55.8472 4.35985 56.5138 5.03598 57.0062 5.92614C57.4987 6.81629 57.7449 7.90152 57.7449 9.18182ZM54.8699 9.18182C54.8699 8.42424 54.7619 7.78409 54.546 7.26136C54.3339 6.73864 54.0271 6.3428 53.6256 6.07386C53.2278 5.80492 52.7487 5.67045 52.1881 5.67045C51.6312 5.67045 51.1521 5.80492 50.7506 6.07386C50.3491 6.3428 50.0403 6.73864 49.8244 7.26136C49.6123 7.78409 49.5062 8.42424 49.5062 9.18182C49.5062 9.93939 49.6123 10.5795 49.8244 11.1023C50.0403 11.625 50.3491 12.0208 50.7506 12.2898C51.1521 12.5587 51.6312 12.6932 52.1881 12.6932C52.7487 12.6932 53.2278 12.5587 53.6256 12.2898C54.0271 12.0208 54.3339 11.625 54.546 11.1023C54.7619 10.5795 54.8699 9.93939 54.8699 9.18182ZM69.1494 7.57955H66.3085C66.2706 7.28788 66.193 7.02462 66.0756 6.78977C65.9581 6.55492 65.8028 6.35417 65.6097 6.1875C65.4165 6.02083 65.1873 5.89394 64.9222 5.80682C64.6608 5.71591 64.371 5.67045 64.0528 5.67045C63.4884 5.67045 63.0017 5.80871 62.5926 6.08523C62.1873 6.36174 61.8748 6.76136 61.6551 7.28409C61.4392 7.80682 61.3312 8.43939 61.3312 9.18182C61.3312 9.95455 61.4411 10.6023 61.6608 11.125C61.8843 11.6439 62.1968 12.036 62.5983 12.3011C63.0036 12.5625 63.4828 12.6932 64.0358 12.6932C64.3464 12.6932 64.6286 12.6534 64.8824 12.5739C65.14 12.4943 65.3653 12.3788 65.5585 12.2273C65.7555 12.072 65.9165 11.8845 66.0415 11.6648C66.1703 11.4413 66.2593 11.1894 66.3085 10.9091L69.1494 10.9261C69.1002 11.4413 68.9506 11.9489 68.7006 12.4489C68.4544 12.9489 68.1153 13.4053 67.6835 13.8182C67.2517 14.2273 66.7252 14.553 66.104 14.7955C65.4866 15.0379 64.7782 15.1591 63.979 15.1591C62.9259 15.1591 61.9828 14.928 61.1494 14.4659C60.3199 14 59.6646 13.322 59.1835 12.4318C58.7025 11.5417 58.4619 10.4583 58.4619 9.18182C58.4619 7.90152 58.7062 6.81629 59.1949 5.92614C59.6835 5.03598 60.3445 4.35985 61.1778 3.89773C62.0112 3.43561 62.9449 3.20455 63.979 3.20455C64.6835 3.20455 65.335 3.30303 65.9335 3.5C66.532 3.69318 67.0585 3.97727 67.5131 4.35227C67.9676 4.72348 68.3369 5.17992 68.621 5.72159C68.9051 6.26326 69.0812 6.88258 69.1494 7.57955ZM69.9588 3.36364H73.4418L76.3963 10.5682H76.5327L79.4872 3.36364H82.9702V15H80.2315V7.85227H80.1349L77.3395 14.9261H75.5895L72.794 7.8125H72.6974V15H69.9588V3.36364ZM94.9074 9.18182C94.9074 10.4621 94.6612 11.5473 94.1687 12.4375C93.6763 13.3277 93.0097 14.0038 92.1687 14.4659C91.3316 14.928 90.3922 15.1591 89.3506 15.1591C88.3051 15.1591 87.3638 14.9261 86.5267 14.4602C85.6896 13.9943 85.0248 13.3182 84.5324 12.4318C84.0437 11.5417 83.7994 10.4583 83.7994 9.18182C83.7994 7.90152 84.0437 6.81629 84.5324 5.92614C85.0248 5.03598 85.6896 4.35985 86.5267 3.89773C87.3638 3.43561 88.3051 3.20455 89.3506 3.20455C90.3922 3.20455 91.3316 3.43561 92.1687 3.89773C93.0097 4.35985 93.6763 5.03598 94.1687 5.92614C94.6612 6.81629 94.9074 7.90152 94.9074 9.18182ZM92.0324 9.18182C92.0324 8.42424 91.9244 7.78409 91.7085 7.26136C91.4964 6.73864 91.1896 6.3428 90.7881 6.07386C90.3903 5.80492 89.9112 5.67045 89.3506 5.67045C88.7937 5.67045 88.3146 5.80492 87.9131 6.07386C87.5116 6.3428 87.2028 6.73864 86.9869 7.26136C86.7748 7.78409 86.6687 8.42424 86.6687 9.18182C86.6687 9.93939 86.7748 10.5795 86.9869 11.1023C87.2028 11.625 87.5116 12.0208 87.9131 12.2898C88.3146 12.5587 88.7937 12.6932 89.3506 12.6932C89.9112 12.6932 90.3903 12.5587 90.7881 12.2898C91.1896 12.0208 91.4964 11.625 91.7085 11.1023C91.9244 10.5795 92.0324 9.93939 92.0324 9.18182ZM94.8375 5.64773V3.36364H104.673V5.64773H101.144V15H98.3716V5.64773H94.8375ZM105.246 15V3.36364H110.053C110.924 3.36364 111.676 3.53409 112.309 3.875C112.945 4.21212 113.436 4.68371 113.78 5.28977C114.125 5.89205 114.297 6.5928 114.297 7.39205C114.297 8.19508 114.121 8.89773 113.769 9.5C113.421 10.0985 112.922 10.5625 112.275 10.892C111.627 11.2216 110.858 11.3864 109.968 11.3864H107.002V9.17045H109.445C109.869 9.17045 110.224 9.09659 110.508 8.94886C110.796 8.80114 111.013 8.5947 111.161 8.32955C111.309 8.06061 111.383 7.74811 111.383 7.39205C111.383 7.0322 111.309 6.72159 111.161 6.46023C111.013 6.19508 110.796 5.99053 110.508 5.84659C110.22 5.70265 109.866 5.63068 109.445 5.63068H108.059V15H105.246Z" fill="white"/>
<rect y="3" width="12" height="12" fill="white"/>
<path d="M4.5 8C4.5 8.27614 4.72386 8.5 5 8.5C5.27614 8.5 5.5 8.27614 5.5 8L4.5 8ZM4.5 3L4.5 8L5.5 8L5.5 3L4.5 3Z" fill="black"/>
<path d="M7.5 10C7.5 9.72386 7.27614 9.5 7 9.5C6.72386 9.5 6.5 9.72386 6.5 10H7.5ZM7.5 15V10H6.5V15H7.5Z" fill="black"/>
</svg>
